# xmcd
#
# Track frame offsets: 
#        150
#        15789
#        33319
#        48566
#        64347
#        79169
#        104051
#        124273
#        137895
#        153780
#        173062
#        189675
#        206656
#        236488
#        253901
#        271336
#
# Disc length: 3874 seconds
#
# Revision: 0
# Processed by: cddbd v1.5.2PL0 Copyright (c) Steve Scherf et al.
# Submitted via: ExactAudioCopy v0.95b3
#
DISCID=e20f2010
DTITLE=The Doobie Brothers  - The Very Best Of The Doobie Brothers - D
DTITLE=isc 1
DYEAR=1900
DGENRE=
TTITLE0=Listen To The Music (Single Version)
TTITLE1=Jesus Is Just Alright (Single Version)
TTITLE2=Rockin' Down The Highway
TTITLE3=Long Train Runnin'
TTITLE4=China Grove
TTITLE5=South City Midnight Lady
TTITLE6=Another Park, Another Sunday
TTITLE7=Eyes Of Silver
TTITLE8=Nobody (Single Version)
TTITLE9=Black Water
TTITLE10=Take Me In Your Arms (Rock Me)
TTITLE11=Sweet Maxine (Single Version)
TTITLE12=I Cheat The Hangman
TTITLE13=Takin' It To The Streets
TTITLE14=Wheels Of Fortune (Single Version)
TTITLE15=It Keeps You Runnin'
EXTD=
EXTT0=
EXTT1=
EXTT2=
EXTT3=
EXTT4=
EXTT5=
EXTT6=
EXTT7=
EXTT8=
EXTT9=
EXTT10=
EXTT11=
EXTT12=
EXTT13=
EXTT14=
EXTT15=
PLAYORDER=
